<svg id="Layer_1" data-name="Layer 1" xmlns="http://www.w3.org/2000/svg" viewBox="0 0 1134.16 149.67"><title>NEVERBLAND</title><polygon class="cls-1" points="118.68 148.27 194.82 148.27 194.82 120.22 149.13 120.22 149.13 86.56 189.61 86.56 189.61 59.71 149.13 59.71 149.13 29.45 194.82 29.45 194.82 1.4 118.68 1.4 118.68 148.27"/><polygon class="cls-1" points="260.73 87.36 237.49 1.2 204.62 1.2 252.32 148.27 268.54 148.27 316.43 1.2 283.97 1.2 260.73 87.36"/><polygon class="cls-1" points="326.23 148.27 402.37 148.27 402.37 120.22 356.69 120.22 356.69 86.56 397.17 86.56 397.17 59.71 356.69 59.71 356.69 29.45 402.37 29.45 402.37 1.4 326.23 1.4 326.23 148.27"/><path class="cls-1" d="M679.24,241.9q5.31-10,5.31-23.85a51.33,51.33,0,0,0-3.3-18.33,41.09,41.09,0,0,0-10.13-15.22,48.35,48.35,0,0,0-17.42-10.32c-3.47-1.25-14.88-2.61-19.85-2.81H594.79V318.43h30.45V267.75c1.34.13,2.6.23,3.81.29s2.53.11,4,.11h2.2a10.84,10.84,0,0,0,2.21-.21l18.43,50.49h33.26l-25.64-59.5A47.22,47.22,0,0,0,679.24,241.9Zm-31.46-4.41q-5.7,5.82-16.13,5.81h-3.2a17.08,17.08,0,0,1-3.21-.4V198.62a33.45,33.45,0,0,1,3.81-.5c1.06-.07,2.33-.1,3.81-.1q10.21,0,15.43,5.8t5.21,16Q653.5,231.68,647.78,237.49Z" transform="translate(-172.92 -170.17)"/><polygon class="cls-1" points="69.13 74.94 9.82 0 0 0 0 148.27 29.86 148.27 29.86 72.94 89.76 149.67 99.18 149.67 99.18 1.4 69.13 1.4 69.13 74.94"/><path class="cls-1" d="M1286.36,229.3a87,87,0,0,0-3.54-15.79,61.54,61.54,0,0,0-13.67-23.39,60.08,60.08,0,0,0-22.79-14.79,80.69,80.69,0,0,0-21.46-4.15h-42.43V229.3H1163V171.38h-30.38V229.3h-13l-46-58.12h-10.89V229.3h-43.48l-19.18-59.13H983.67L964.41,229.3H877.26V171.38H846.48V229.3H819.54c3.5-5.42,5.29-12,5.29-19.64a34.69,34.69,0,0,0-13.16-27.34,51.56,51.56,0,0,0-17-8.81c-2.73-.88-12.49-2.33-18.81-2.33h-38.5V229.3H718.87v27.15h18.47v63.38h45.82a63.72,63.72,0,0,0,13.41-2,51.23,51.23,0,0,0,17.63-8.91,35.83,35.83,0,0,0,10.43-13.57,42.69,42.69,0,0,0,3.44-17.21q0-12.76-6.08-21.67h24.49v63.38h74.33V291.69H877.26V256.45h78.31l-20.31,62.37h32.81l16.83-62.37h13.33l16.82,62.37h33.22L1028,256.45h34.68v63.38h30.18V256.45h10l49.48,63.38H1163V256.45h19.5v63.38h44.33c5.13,0,15.26-2.25,20.07-4.15a58.87,58.87,0,0,0,22.58-15.39,64.66,64.66,0,0,0,13.47-24.2,97.64,97.64,0,0,0,3.83-19.64h20.33V229.3ZM767.1,197l8.51.31q8.71,0,13.47,4.66c3.18,3.11,4.77,7.49,4.77,13.17q0,9.72-5,14.17H767.1Zm23.41,92.77q-5.38,4.75-14.69,4.76H767.1V256.45h17.11a17,17,0,0,1,6.3,3.95q5.36,5.36,5.36,14.27Q795.87,285,790.51,289.76Zm422.75-91.64H1221q16.41,0,25.31,12.35a46.2,46.2,0,0,1,7.59,18.83h-40.59Zm39.79,66.63a48.35,48.35,0,0,1-6.28,15.28A27.87,27.87,0,0,1,1222,293.3h-8.7V256.45h41.22A73.13,73.13,0,0,1,1253.05,264.75Z" transform="translate(-172.92 -170.17)"/></svg>
